<svg width="17" height="11" viewBox="0 0 17 11" fill="none" xmlns="http://www.w3.org/2000/svg">
<path d="M14.1712 1.50517C14.1712 0.677345 13.4209 3.05176e-05 12.504 3.05176e-05H10.0032V1.50517H12.504V3.49949L9.60304 6.77318H6.66878V3.01032H3.33439C1.49214 3.01032 0 4.35742 0 6.02061V8.27832H1.6672C1.6672 9.52759 2.78422 10.536 4.16799 10.536C5.55176 10.536 6.66878 9.52759 6.66878 8.27832H10.4033L14.1712 4.02629V1.50517ZM4.16799 9.0309C3.70951 9.0309 3.33439 8.69224 3.33439 8.27832H5.00159C5.00159 8.69224 4.62647 9.0309 4.16799 9.0309Z" fill="#333333"/>
<path d="M6.66879 0.752594H2.50079V2.25772H6.66879V0.752594Z" fill="#333333"/>
<path d="M14.1711 6.0206C12.7874 6.0206 11.6703 7.02904 11.6703 8.27831C11.6703 9.52757 12.7874 10.536 14.1711 10.536C15.5549 10.536 16.6719 9.52757 16.6719 8.27831C16.6719 7.02904 15.5549 6.0206 14.1711 6.0206ZM14.1711 9.03087C13.7127 9.03087 13.3375 8.69222 13.3375 8.27831C13.3375 7.86439 13.7127 7.52574 14.1711 7.52574C14.6296 7.52574 15.0047 7.86439 15.0047 8.27831C15.0047 8.69222 14.6296 9.03087 14.1711 9.03087Z" fill="#333333"/>
</svg>
